<svg width="50" height="50" viewBox="0 0 50 50" fill="none" xmlns="http://www.w3.org/2000/svg">
<path d="M32.699 0C26.6264 7.41673 26.6838 19.5117 32.7564 26.9285C38.829 19.5117 38.7716 7.41673 32.699 0Z" fill="#3D9A32"/>
<path d="M49.9999 14.0953C41.4121 14.1263 34.471 22.7535 34.4964 33.2423C43.0843 33.2113 50.0253 24.5841 49.9999 14.0953Z" fill="#3D9A32"/>
<path d="M4.66078 19.0764C10.4795 12.1765 19.6687 12.4828 25.1854 19.7604L32.699 33.4151L23.9711 45.1279C18.2796 51.8769 9.29145 51.5773 3.89541 44.4588C-1.50062 37.3404 -1.26112 26.0986 4.43036 19.3496L4.66078 19.0764Z" fill="#3D9A32"/>
<path d="M6.7172 21.1538C11.5908 15.359 19.2875 15.6162 23.9081 21.7283L30.2014 33.1961L22.8911 43.033C18.124 48.7011 10.5957 48.4495 6.07614 42.4711C1.55655 36.4927 1.75715 27.0514 6.5242 21.3833L6.7172 21.1538Z" fill="white"/>
<path d="M12.7006 36.4937C12.7006 36.8583 12.6585 37.1856 12.5743 37.4755C12.4978 37.7653 12.3791 38.0131 12.2183 38.2188C12.0652 38.4245 11.8738 38.5834 11.6442 38.6957C11.4145 38.8079 11.1504 38.8686 10.8518 38.878L10.5303 37.8261C10.7676 37.8261 10.9705 37.7747 11.1389 37.6718C11.3073 37.5596 11.4375 37.396 11.5293 37.1809C11.6212 36.9565 11.6671 36.6807 11.6671 36.3534V29.7756L10.9322 29.7475V28.5414H12.7006V36.4937Z" fill="#3D9A32"/>
<path d="M16.0856 28.5414C16.5296 28.5414 16.9124 28.6349 17.2339 28.8219C17.5554 29.0089 17.8042 29.2847 17.9803 29.6494C18.1564 30.014 18.2444 30.4628 18.2444 30.9958C18.2444 31.2763 18.2138 31.5381 18.1526 31.7812C18.099 32.0243 18.0148 32.244 17.8999 32.4404C17.7851 32.6367 17.6435 32.805 17.475 32.9453C17.6971 33.0669 17.8999 33.2445 18.0837 33.4783C18.2674 33.7027 18.409 33.9785 18.5086 34.3058C18.6157 34.633 18.6693 35.0164 18.6693 35.4558C18.6693 36.0449 18.5736 36.5591 18.3822 36.9986C18.1985 37.4287 17.9267 37.7653 17.5669 38.0084C17.2148 38.2422 16.7746 38.359 16.2463 38.359H13.674V28.5414H16.0856ZM15.7296 32.5666C16.0358 32.5666 16.2846 32.5199 16.476 32.4264C16.6674 32.3235 16.809 32.1646 16.9009 31.9495C16.9927 31.7345 17.0387 31.4633 17.0387 31.136C17.0387 30.8275 16.9927 30.575 16.9009 30.3787C16.809 30.1823 16.6674 30.0421 16.476 29.9579C16.2923 29.8644 16.0626 29.8177 15.787 29.8177H14.742V32.5666H15.7296ZM16.0167 37.1529C16.2616 37.1529 16.4951 37.1014 16.7171 36.9986C16.9392 36.8864 17.1191 36.7041 17.2569 36.4516C17.3947 36.1992 17.4636 35.8532 17.4636 35.4137C17.4636 35.0865 17.41 34.8013 17.3028 34.5582C17.1956 34.3151 17.031 34.1328 16.809 34.0112C16.5947 33.8803 16.3229 33.8149 15.9937 33.8149H14.742V37.1529H16.0167Z" fill="#3D9A32"/>
<path d="M20.6816 25.7924V27.4474H21.9792V28.6957H20.6816V30.2805H19.6137V28.6957H18.3045V27.4474H19.6137V25.7924H20.6816Z" fill="#3D9A32"/>
<path d="M31.5851 40.8597V37.7279H31.8584V40.8303C31.8584 41.2426 31.8115 41.5633 31.7177 41.7924C31.624 42.0215 31.4806 42.1884 31.2877 42.2931L31.2756 42.2686C31.3828 42.177 31.4605 42.0215 31.5087 41.8022C31.5596 41.5863 31.5851 41.2721 31.5851 40.8597Z" fill="black"/>
<path d="M32.4859 41.1641L33.5671 37.7279H33.8163L34.8974 41.1641H34.604L34.1056 39.554H33.1933L32.7793 41.1641H32.4859ZM33.5952 37.9832L33.2214 39.4362H34.0695L33.6193 37.9832H33.5952Z" fill="black"/>
<path d="M35.3042 41.0561L35.3283 40.7616H35.3524C35.4569 40.8728 35.5748 40.9596 35.7061 41.0217C35.8374 41.0839 35.9673 41.115 36.096 41.115C36.2782 41.115 36.4255 41.0545 36.5381 40.9334C36.6506 40.809 36.7069 40.6438 36.7069 40.4376C36.7069 40.323 36.6854 40.2167 36.6426 40.1185C36.6024 40.0203 36.534 39.9205 36.4376 39.8191C36.3438 39.7176 36.2139 39.608 36.0477 39.4902C35.9325 39.4084 35.8226 39.3233 35.7181 39.2349C35.6137 39.1433 35.5279 39.0386 35.4609 38.9208C35.3939 38.7997 35.3604 38.6557 35.3604 38.4888C35.3604 38.2401 35.4341 38.0404 35.5815 37.8899C35.7289 37.7361 35.9231 37.6592 36.1643 37.6592C36.2715 37.6592 36.3867 37.6739 36.5099 37.7034C36.6332 37.7295 36.7283 37.7639 36.7953 37.8065L36.7752 38.0813H36.7511C36.5984 37.8784 36.4028 37.777 36.1643 37.777C35.9928 37.777 35.8548 37.831 35.7503 37.939C35.6458 38.0437 35.5936 38.1861 35.5936 38.3661C35.5936 38.5002 35.6217 38.6164 35.678 38.7146C35.7369 38.8095 35.8119 38.8962 35.903 38.9748C35.9941 39.05 36.0919 39.1237 36.1964 39.1957C36.317 39.2807 36.4336 39.3707 36.5461 39.4656C36.6613 39.5605 36.7551 39.6751 36.8274 39.8093C36.9025 39.9402 36.94 40.1054 36.94 40.305C36.94 40.4883 36.9052 40.6503 36.8355 40.791C36.7658 40.9285 36.6667 41.0365 36.5381 41.115C36.4121 41.1935 36.2648 41.2328 36.096 41.2328C35.9888 41.2328 35.8628 41.2165 35.7181 41.1837C35.5735 41.151 35.4355 41.1085 35.3042 41.0561Z" fill="black"/>
<path d="M37.7316 41.1641V37.7279H38.0049V39.3184H39.693V37.7279H39.9663V41.1641H39.693V39.4362H38.0049V41.1641H37.7316Z" fill="black"/>
<path d="M41.6158 41.1641V39.7111L40.6191 37.7279H40.9245L41.8208 39.5245H41.8449L42.5603 37.7279H42.8658L41.9052 39.6424V41.1641H41.6158Z" fill="black"/>
<path d="M43.4935 37.7279H43.7668V41.0659C43.8177 41.0659 43.8981 41.0561 44.008 41.0365L44.6752 40.9137V41.1641H43.4935V37.7279Z" fill="black"/>
<path d="M26.3544 48.9481V44.0393H27.1525C27.5659 44.0393 27.8874 44.1445 28.1171 44.3548C28.3468 44.5652 28.4616 44.8574 28.4616 45.2314C28.4616 45.5072 28.3946 45.7433 28.2607 45.9397C28.1267 46.1314 27.9391 46.2623 27.698 46.3324V46.3745C28.0272 46.4259 28.2836 46.5662 28.4674 46.7952C28.6549 47.0196 28.7487 47.3048 28.7487 47.6508C28.7487 48.0575 28.6205 48.3754 28.364 48.6045C28.1075 48.8336 27.7477 48.9481 27.2846 48.9481H26.3544ZM27.1583 44.2076H26.7448V46.3114H27.1525C27.7573 46.3114 28.0597 45.9607 28.0597 45.2595C28.0597 44.5582 27.7592 44.2076 27.1583 44.2076ZM27.2846 46.4797H26.7448V48.7798H27.2846C27.9851 48.7798 28.3353 48.3964 28.3353 47.6297C28.3353 46.863 27.9851 46.4797 27.2846 46.4797Z" fill="#3D9A32"/>
<path d="M29.611 46.4937C29.611 46.1337 29.6627 45.7994 29.7661 45.4909C29.8732 45.1777 30.0206 44.9065 30.2082 44.6774C30.3996 44.4437 30.6216 44.2637 30.8742 44.1374C31.1307 44.0065 31.4063 43.9411 31.701 43.9411C31.9958 43.9411 32.2694 44.0065 32.5221 44.1374C32.7785 44.2637 33.0006 44.4437 33.1881 44.6774C33.3795 44.9065 33.5269 45.1777 33.6302 45.4909C33.7374 45.7994 33.791 46.1337 33.791 46.4937C33.791 46.8537 33.7374 47.1903 33.6302 47.5035C33.5269 47.8121 33.3795 48.0832 33.1881 48.317C33.0006 48.5461 32.7785 48.726 32.5221 48.8569C32.2694 48.9832 31.9958 49.0463 31.701 49.0463C31.4063 49.0463 31.1307 48.9832 30.8742 48.8569C30.6216 48.726 30.3996 48.5461 30.2082 48.317C30.0206 48.0832 29.8732 47.8121 29.7661 47.5035C29.6627 47.1903 29.611 46.8537 29.611 46.4937ZM30.0474 46.4937C30.0474 46.9705 30.1163 47.389 30.2541 47.749C30.3919 48.1043 30.5852 48.3824 30.834 48.5834C31.0828 48.7798 31.3718 48.878 31.701 48.878C32.0302 48.878 32.3192 48.7798 32.568 48.5834C32.8168 48.3824 33.0101 48.1019 33.1479 47.7419C33.2857 47.382 33.3546 46.9659 33.3546 46.4937C33.3546 46.0215 33.2857 45.6078 33.1479 45.2525C33.0101 44.8925 32.8168 44.612 32.568 44.4109C32.3192 44.2099 32.0302 44.1094 31.701 44.1094C31.3718 44.1094 31.0828 44.2099 30.834 44.4109C30.589 44.6073 30.3957 44.8855 30.2541 45.2454C30.1163 45.6007 30.0474 46.0168 30.0474 46.4937Z" fill="#3D9A32"/>
<path d="M34.9089 48.9481L35.0524 43.9411H35.1213L38.0094 48.2048H38.0438L37.9175 44.0393H38.308L38.1644 49.0463H38.0955L35.2074 44.7826H35.173L35.2993 48.9481H34.9089Z" fill="#3D9A32"/>
<path d="M39.6588 44.0393H40.0492V46.9986C40.0492 47.5643 40.1621 48.0061 40.388 48.324C40.6177 48.6372 40.9392 48.7938 41.3526 48.7938C41.6129 48.7938 41.8387 48.7331 42.0301 48.6115C42.2253 48.4853 42.3746 48.3123 42.478 48.0926C42.5851 47.8728 42.6349 47.6204 42.6272 47.3352L42.5296 44.0393H42.9201L42.8225 47.3352C42.8072 47.8962 42.6694 48.3216 42.4091 48.6115C42.1526 48.9014 41.7851 49.0463 41.3067 49.0463C40.7899 49.0463 40.3861 48.864 40.0952 48.4993C39.8042 48.13 39.6588 47.6251 39.6588 46.9846V44.0393Z" fill="#3D9A32"/>
<path d="M43.947 48.7938L43.9814 48.3731H44.0159C44.1652 48.532 44.3336 48.6559 44.5212 48.7447C44.7087 48.8336 44.8944 48.878 45.0781 48.878C45.3384 48.878 45.5489 48.7915 45.7097 48.6185C45.8705 48.4409 45.9508 48.2048 45.9508 47.9102C45.9508 47.7466 45.9202 47.5947 45.859 47.4544C45.8016 47.3142 45.7039 47.1716 45.5661 47.0266C45.4322 46.8817 45.2465 46.7251 45.0092 46.5568C44.8446 46.4399 44.6877 46.3184 44.5384 46.1921C44.3891 46.0612 44.2666 45.9116 44.1709 45.7433C44.0752 45.5704 44.0274 45.3647 44.0274 45.1262C44.0274 44.7709 44.1326 44.4857 44.3432 44.2707C44.5537 44.051 44.8312 43.9411 45.1757 43.9411C45.3288 43.9411 45.4934 43.9621 45.6695 44.0042C45.8456 44.0416 45.9815 44.0907 46.0772 44.1515L46.0485 44.5442H46.014C45.7958 44.2543 45.5164 44.1094 45.1757 44.1094C44.9307 44.1094 44.7336 44.1865 44.5843 44.3408C44.435 44.4904 44.3604 44.6938 44.3604 44.9509C44.3604 45.1426 44.4006 45.3086 44.481 45.4488C44.5652 45.5844 44.6724 45.7083 44.8025 45.8205C44.9326 45.928 45.0724 46.0332 45.2216 46.136C45.3939 46.2576 45.5604 46.3862 45.7212 46.5217C45.8858 46.6573 46.0197 46.8209 46.1231 47.0126C46.2303 47.1996 46.2839 47.4357 46.2839 47.7209C46.2839 47.9827 46.2341 48.2141 46.1346 48.4151C46.0351 48.6115 45.8934 48.7658 45.7097 48.878C45.5298 48.9902 45.3193 49.0463 45.0781 49.0463C44.925 49.0463 44.7451 49.0229 44.5384 48.9762C44.3317 48.9294 44.1346 48.8686 43.947 48.7938Z" fill="#3D9A32"/>
</svg>
