<svg width="2344" height="839" viewBox="0 0 2344 839" fill="none" xmlns="http://www.w3.org/2000/svg">
<rect width="2344" height="839" fill="white"/>
<path d="M1025.29 430.042C1019.42 430.042 1014.79 428.909 1011.39 426.642C1007.99 424.309 1005.55 420.442 1004.09 415.042C1002.69 409.575 1001.99 402.109 1001.99 392.642V384.642C1001.99 375.175 1002.69 367.742 1004.09 362.342C1005.55 356.875 1007.99 353.009 1011.39 350.742C1014.79 348.409 1019.42 347.242 1025.29 347.242C1031.22 347.242 1035.85 348.409 1039.19 350.742C1042.59 353.009 1044.99 356.875 1046.39 362.342C1047.85 367.742 1048.59 375.175 1048.59 384.642V392.642C1048.59 402.109 1047.85 409.575 1046.39 415.042C1044.99 420.442 1042.59 424.309 1039.19 426.642C1035.85 428.909 1031.22 430.042 1025.29 430.042ZM1025.29 425.442C1029.95 425.442 1033.59 424.442 1036.19 422.442C1038.85 420.442 1040.75 417.042 1041.89 412.242C1043.02 407.442 1043.59 400.909 1043.59 392.642V384.642C1043.59 376.309 1043.02 369.775 1041.89 365.042C1040.75 360.242 1038.85 356.842 1036.19 354.842C1033.59 352.842 1029.95 351.842 1025.29 351.842C1020.62 351.842 1016.95 352.842 1014.29 354.842C1011.62 356.842 1009.72 360.242 1008.59 365.042C1007.52 369.775 1006.99 376.309 1006.99 384.642V392.642C1007.05 400.909 1007.62 407.442 1008.69 412.242C1009.82 417.042 1011.72 420.442 1014.39 422.442C1017.05 424.442 1020.69 425.442 1025.29 425.442ZM1082.75 428.642V348.642H1087.75V428.642H1082.75ZM1058.45 353.242V348.642H1112.05V353.242H1058.45ZM1146.71 430.042C1142.11 430.042 1138.27 429.342 1135.21 427.942C1132.14 426.542 1129.67 424.275 1127.81 421.142C1125.94 417.942 1124.61 413.675 1123.81 408.342C1123.01 403.009 1122.61 396.409 1122.61 388.542C1122.61 380.675 1123.01 374.109 1123.81 368.842C1124.61 363.509 1125.94 359.275 1127.81 356.142C1129.67 352.942 1132.14 350.675 1135.21 349.342C1138.27 347.942 1142.11 347.242 1146.71 347.242C1150.71 347.242 1154.01 347.742 1156.61 348.742C1159.27 349.742 1161.47 351.409 1163.21 353.742C1164.94 356.075 1166.44 359.309 1167.71 363.442L1162.91 365.142C1161.84 361.742 1160.61 359.075 1159.21 357.142C1157.87 355.209 1156.21 353.842 1154.21 353.042C1152.27 352.242 1149.77 351.842 1146.71 351.842C1141.91 351.842 1138.11 352.975 1135.31 355.242C1132.51 357.442 1130.51 361.209 1129.31 366.542C1128.17 371.875 1127.61 379.209 1127.61 388.542C1127.61 397.875 1128.17 405.242 1129.31 410.642C1130.51 415.975 1132.51 419.775 1135.31 422.042C1138.11 424.309 1141.91 425.442 1146.71 425.442C1149.77 425.442 1152.27 425.042 1154.21 424.242C1156.21 423.442 1157.87 422.109 1159.21 420.242C1160.61 418.309 1161.84 415.709 1162.91 412.442L1167.71 414.042C1166.44 418.109 1164.94 421.309 1163.21 423.642C1161.47 425.975 1159.31 427.642 1156.71 428.642C1154.11 429.575 1150.77 430.042 1146.71 430.042ZM1186.37 388.642V384.042H1195.37C1198.37 384.042 1200.8 383.442 1202.67 382.242C1204.6 381.042 1206.17 379.442 1207.37 377.442C1208.63 375.442 1209.73 373.209 1210.67 370.742C1211.67 368.209 1212.67 365.609 1213.67 362.942C1214.73 360.275 1216 357.709 1217.47 355.242C1219 352.775 1220.97 350.575 1223.37 348.642H1230.47C1227.53 350.575 1225.13 352.909 1223.27 355.642C1221.4 358.309 1219.83 361.142 1218.57 364.142C1217.3 367.142 1216.1 370.109 1214.97 373.042C1213.83 375.909 1212.57 378.542 1211.17 380.942C1209.77 383.275 1208 385.142 1205.87 386.542C1203.8 387.942 1201.1 388.642 1197.77 388.642H1186.37ZM1184.17 428.642V348.642H1189.17V428.642H1184.17ZM1224.97 428.642L1195.57 386.642L1200.57 385.342L1230.97 428.642H1224.97ZM1240.13 428.642L1262.33 348.642H1267.93L1290.13 428.642H1284.93L1265.13 356.142L1245.33 428.642H1240.13ZM1249.13 407.042L1250.33 402.442H1279.93L1281.13 407.042H1249.13ZM1341.69 428.642V348.642H1346.69V428.642H1341.69ZM1303.49 428.642V348.642H1308.49V428.642H1303.49ZM1306.39 388.642V384.042H1343.79V388.642H1306.39ZM1363.65 428.642V348.642H1368.65V428.642H1363.65L1401.05 348.642H1406.45V428.642H1401.45V348.642H1406.45L1369.05 428.642H1363.65ZM1425.61 428.642V348.642H1447.01C1452.48 348.642 1456.75 349.342 1459.81 350.742C1462.95 352.075 1465.18 354.375 1466.51 357.642C1467.85 360.842 1468.51 365.275 1468.51 370.942C1468.51 376.609 1467.85 381.075 1466.51 384.342C1465.18 387.542 1462.95 389.842 1459.81 391.242C1456.75 392.575 1452.48 393.242 1447.01 393.242H1428.41V388.642H1447.01C1451.21 388.642 1454.51 388.109 1456.91 387.042C1459.31 385.975 1461.01 384.142 1462.01 381.542C1463.01 378.942 1463.51 375.409 1463.51 370.942C1463.51 366.409 1463.01 362.875 1462.01 360.342C1461.01 357.742 1459.31 355.909 1456.91 354.842C1454.51 353.775 1451.21 353.242 1447.01 353.242H1427.51L1430.61 350.142V428.642H1425.61ZM1492.17 430.042C1490.31 430.042 1488.71 429.842 1487.37 429.442C1486.11 429.109 1484.71 428.475 1483.17 427.542L1485.17 423.342C1486.64 424.142 1487.87 424.709 1488.87 425.042C1489.87 425.309 1490.97 425.442 1492.17 425.442C1495.44 425.442 1498.11 425.009 1500.17 424.142C1502.24 423.209 1503.97 421.542 1505.37 419.142C1506.84 416.675 1508.21 413.109 1509.47 408.442L1526.27 348.642H1531.37L1513.87 410.742C1512.54 415.609 1510.91 419.475 1508.97 422.342C1507.04 425.142 1504.71 427.142 1501.97 428.342C1499.31 429.475 1496.04 430.042 1492.17 430.042ZM1504.97 422.542L1480.47 348.642H1485.67L1508.47 417.542L1504.97 422.542ZM1543.53 428.642V348.642H1548.53V428.642H1543.53L1580.93 348.642H1586.33V428.642H1581.33V348.642H1586.33L1548.93 428.642H1543.53ZM1564.83 341.942C1560.17 341.942 1556.93 341.109 1555.13 339.442C1553.33 337.775 1552.43 334.775 1552.43 330.442H1558.43C1557.43 333.042 1557.33 334.842 1558.13 335.842C1558.93 336.842 1561.17 337.342 1564.83 337.342C1567.37 337.342 1569.2 337.142 1570.33 336.742C1571.53 336.275 1572.17 335.542 1572.23 334.542C1572.37 333.542 1572.1 332.175 1571.43 330.442H1577.43C1577.43 334.775 1576.53 337.775 1574.73 339.442C1572.93 341.109 1569.63 341.942 1564.83 341.942ZM1622.39 428.642V348.642H1627.39V428.642H1622.39ZM1598.09 353.242V348.642H1651.69V353.242H1598.09ZM1665.06 428.642V348.642H1707.46V353.242H1666.96L1670.06 350.142V386.142L1666.96 384.042H1694.06V388.642H1666.96L1670.06 386.542V426.142L1667.96 424.042H1707.46V428.642H1665.06ZM999.785 563.642V483.642H1004.79V559.042H1022.79V483.642H1027.79V559.042H1045.79V483.642H1050.79V563.642H999.785ZM1082.75 563.642V483.642H1087.75V563.642H1082.75ZM1058.45 488.242V483.642H1112.05V488.242H1058.45ZM1125.81 563.642V483.642H1147.21C1152.67 483.642 1156.94 484.342 1160.01 485.742C1163.14 487.075 1165.37 489.375 1166.71 492.642C1168.04 495.842 1168.71 500.275 1168.71 505.942C1168.71 511.609 1168.04 516.075 1166.71 519.342C1165.37 522.542 1163.14 524.842 1160.01 526.242C1156.94 527.575 1152.67 528.242 1147.21 528.242H1128.61V523.642H1147.21C1151.41 523.642 1154.71 523.109 1157.11 522.042C1159.51 520.975 1161.21 519.142 1162.21 516.542C1163.21 513.942 1163.71 510.409 1163.71 505.942C1163.71 501.409 1163.21 497.875 1162.21 495.342C1161.21 492.742 1159.51 490.909 1157.11 489.842C1154.71 488.775 1151.41 488.242 1147.21 488.242H1127.71L1130.81 485.142V563.642H1125.81ZM1183.77 563.642V483.642H1188.77V563.642H1183.77L1221.17 483.642H1226.57V563.642H1221.57V483.642H1226.57L1189.17 563.642H1183.77ZM1283.53 563.642L1241.23 483.642H1246.73L1289.03 563.642H1283.53ZM1241.23 563.642L1283.53 483.642H1289.03L1246.73 563.642H1241.23ZM1307.09 525.942V521.342H1343.09V525.942H1307.09ZM1366.25 523.642V519.042H1375.25C1378.25 519.042 1380.68 518.442 1382.55 517.242C1384.48 516.042 1386.05 514.442 1387.25 512.442C1388.52 510.442 1389.62 508.209 1390.55 505.742C1391.55 503.209 1392.55 500.609 1393.55 497.942C1394.62 495.275 1395.88 492.709 1397.35 490.242C1398.88 487.775 1400.85 485.575 1403.25 483.642H1410.35C1407.42 485.575 1405.02 487.909 1403.15 490.642C1401.28 493.309 1399.72 496.142 1398.45 499.142C1397.18 502.142 1395.98 505.109 1394.85 508.042C1393.72 510.909 1392.45 513.542 1391.05 515.942C1389.65 518.275 1387.88 520.142 1385.75 521.542C1383.68 522.942 1380.98 523.642 1377.65 523.642H1366.25ZM1364.05 563.642V483.642H1369.05V563.642H1364.05ZM1404.85 563.642L1375.45 521.642L1380.45 520.342L1410.85 563.642H1404.85ZM1445.01 565.042C1439.15 565.042 1434.51 563.909 1431.11 561.642C1427.71 559.309 1425.28 555.442 1423.81 550.042C1422.41 544.575 1421.71 537.109 1421.71 527.642V519.642C1421.71 510.175 1422.41 502.742 1423.81 497.342C1425.28 491.875 1427.71 488.009 1431.11 485.742C1434.51 483.409 1439.15 482.242 1445.01 482.242C1450.95 482.242 1455.58 483.409 1458.91 485.742C1462.31 488.009 1464.71 491.875 1466.11 497.342C1467.58 502.742 1468.31 510.175 1468.31 519.642V527.642C1468.31 537.109 1467.58 544.575 1466.11 550.042C1464.71 555.442 1462.31 559.309 1458.91 561.642C1455.58 563.909 1450.95 565.042 1445.01 565.042ZM1445.01 560.442C1449.68 560.442 1453.31 559.442 1455.91 557.442C1458.58 555.442 1460.48 552.042 1461.61 547.242C1462.75 542.442 1463.31 535.909 1463.31 527.642V519.642C1463.31 511.309 1462.75 504.775 1461.61 500.042C1460.48 495.242 1458.58 491.842 1455.91 489.842C1453.31 487.842 1449.68 486.842 1445.01 486.842C1440.35 486.842 1436.68 487.842 1434.01 489.842C1431.35 491.842 1429.45 495.242 1428.31 500.042C1427.25 504.775 1426.71 511.309 1426.71 519.642V527.642C1426.78 535.909 1427.35 542.442 1428.41 547.242C1429.55 552.042 1431.45 555.442 1434.11 557.442C1436.78 559.442 1440.41 560.442 1445.01 560.442ZM1481.47 559.042C1483.54 557.642 1485.31 555.609 1486.77 552.942C1488.24 550.209 1489.51 546.775 1490.57 542.642C1491.64 538.509 1492.54 533.609 1493.27 527.942C1494.01 522.209 1494.67 515.675 1495.27 508.342C1495.87 501.009 1496.44 492.775 1496.97 483.642H1526.57V559.042H1521.57V488.242H1501.47C1501.01 496.442 1500.47 503.942 1499.87 510.742C1499.34 517.475 1498.71 523.542 1497.97 528.942C1497.24 534.275 1496.41 538.942 1495.47 542.942C1494.54 546.942 1493.47 550.275 1492.27 552.942C1491.07 555.609 1489.74 557.642 1488.27 559.042H1481.47ZM1478.37 572.442V559.042H1531.57V572.442H1526.57V563.642H1483.37V572.442H1478.37ZM1562.43 542.042L1561.43 483.642H1568.43L1567.43 542.042H1562.43ZM1564.93 565.042C1562.67 565.042 1561.1 564.642 1560.23 563.842C1559.37 563.042 1558.93 561.542 1558.93 559.342C1558.93 557.142 1559.37 555.642 1560.23 554.842C1561.1 554.042 1562.67 553.642 1564.93 553.642C1567.27 553.642 1568.83 554.042 1569.63 554.842C1570.5 555.642 1570.93 557.142 1570.93 559.342C1570.93 561.542 1570.5 563.042 1569.63 563.842C1568.83 564.642 1567.27 565.042 1564.93 565.042Z" fill="#3D9A32"/>
<path d="M835.744 250.358C797.297 297.316 797.66 373.894 836.108 420.852C874.556 373.894 874.192 297.316 835.744 250.358Z" fill="#3D9A32"/>
<path d="M945.283 339.601C890.91 339.797 846.964 394.419 847.124 460.827C901.498 460.631 945.444 406.009 945.283 339.601Z" fill="#3D9A32"/>
<path d="M658.224 371.138C695.065 327.452 753.245 329.391 788.173 375.468L835.744 461.922L780.485 536.079C744.45 578.81 687.542 576.913 653.378 531.843C619.214 486.774 620.73 415.598 656.765 372.868L658.224 371.138Z" fill="#3D9A32"/>
<path d="M671.244 384.291C702.101 347.602 750.831 349.23 780.086 387.928L819.931 460.535L773.647 522.816C743.465 558.703 695.8 557.11 667.185 519.258C638.57 481.407 639.84 421.63 670.022 385.743L671.244 384.291Z" fill="white"/>
<path d="M709.127 481.413C709.127 483.722 708.861 485.794 708.328 487.629C707.843 489.464 707.092 491.033 706.074 492.335C705.104 493.638 703.893 494.644 702.438 495.354C700.984 496.065 699.312 496.45 697.422 496.509L695.386 489.849C696.889 489.849 698.173 489.523 699.239 488.872C700.306 488.162 701.13 487.126 701.711 485.764C702.293 484.343 702.584 482.597 702.584 480.525V438.878L697.931 438.701V431.064H709.127V481.413Z" fill="#3D9A32"/>
<path d="M730.559 431.064C733.37 431.064 735.793 431.656 737.829 432.84C739.865 434.024 741.44 435.77 742.555 438.079C743.67 440.388 744.227 443.229 744.227 446.604C744.227 448.38 744.033 450.037 743.646 451.577C743.306 453.116 742.773 454.507 742.046 455.75C741.319 456.993 740.422 458.059 739.356 458.947C740.762 459.716 742.046 460.841 743.209 462.321C744.373 463.742 745.269 465.488 745.899 467.56C746.578 469.632 746.917 472.06 746.917 474.842C746.917 478.571 746.311 481.827 745.1 484.61C743.936 487.333 742.216 489.464 739.938 491.003C737.708 492.483 734.921 493.223 731.576 493.223H715.29V431.064H730.559ZM728.305 456.549C730.243 456.549 731.819 456.253 733.031 455.661C734.242 455.01 735.139 454.004 735.721 452.642C736.302 451.281 736.593 449.564 736.593 447.492C736.593 445.538 736.302 443.94 735.721 442.697C735.139 441.453 734.242 440.565 733.031 440.033C731.867 439.441 730.413 439.145 728.668 439.145H722.052V456.549H728.305ZM730.122 485.587C731.673 485.587 733.152 485.261 734.557 484.61C735.963 483.899 737.102 482.745 737.975 481.147C738.847 479.548 739.283 477.358 739.283 474.575C739.283 472.504 738.944 470.698 738.265 469.159C737.587 467.62 736.545 466.465 735.139 465.696C733.782 464.867 732.061 464.452 729.977 464.452H722.052V485.587H730.122Z" fill="#3D9A32"/>
<path d="M759.658 413.659V424.138H767.874V432.041H759.658V442.075H752.896V432.041H744.608V424.138H752.896V413.659H759.658Z" fill="#3D9A32"/>
<path d="M828.692 509.056V489.227H830.422V508.87C830.422 511.48 830.125 513.511 829.532 514.961C828.938 516.412 828.03 517.468 826.809 518.131L826.733 517.976C827.411 517.396 827.903 516.412 828.208 515.023C828.531 513.656 828.692 511.667 828.692 509.056Z" fill="black"/>
<path d="M834.395 510.983L841.241 489.227H842.818L849.663 510.983H847.806L844.65 500.789H838.874L836.253 510.983H834.395ZM841.419 490.843L839.052 500.043H844.421L841.571 490.843H841.419Z" fill="black"/>
<path d="M852.239 510.299L852.391 508.435H852.544C853.206 509.139 853.952 509.688 854.783 510.082C855.615 510.475 856.438 510.672 857.252 510.672C858.405 510.672 859.339 510.289 860.051 509.522C860.764 508.735 861.12 507.689 861.12 506.383C861.12 505.658 860.984 504.985 860.713 504.363C860.458 503.742 860.026 503.11 859.415 502.467C858.821 501.825 857.998 501.131 856.947 500.385C856.217 499.867 855.521 499.328 854.86 498.769C854.198 498.189 853.655 497.526 853.231 496.78C852.807 496.013 852.595 495.101 852.595 494.045C852.595 492.47 853.062 491.206 853.995 490.253C854.928 489.279 856.158 488.792 857.684 488.792C858.363 488.792 859.093 488.885 859.873 489.072C860.653 489.238 861.256 489.455 861.68 489.725L861.552 491.465H861.4C860.433 490.18 859.194 489.538 857.684 489.538C856.599 489.538 855.725 489.88 855.063 490.564C854.402 491.227 854.071 492.128 854.071 493.268C854.071 494.117 854.249 494.853 854.605 495.474C854.979 496.075 855.454 496.624 856.03 497.122C856.607 497.598 857.226 498.064 857.888 498.52C858.651 499.059 859.389 499.629 860.102 500.23C860.831 500.83 861.425 501.556 861.883 502.405C862.358 503.234 862.596 504.28 862.596 505.544C862.596 506.704 862.375 507.73 861.934 508.621C861.493 509.491 860.865 510.175 860.051 510.672C859.254 511.17 858.321 511.418 857.252 511.418C856.573 511.418 855.776 511.315 854.86 511.107C853.944 510.9 853.07 510.631 852.239 510.299Z" fill="black"/>
<path d="M867.608 510.983V489.227H869.338V499.297H880.026V489.227H881.757V510.983H880.026V500.043H869.338V510.983H867.608Z" fill="black"/>
<path d="M892.2 510.983V501.784L885.889 489.227H887.823L893.498 500.602H893.651L898.18 489.227H900.114L894.032 501.348V510.983H892.2Z" fill="black"/>
<path d="M904.089 489.227H905.819V510.361C906.141 510.361 906.65 510.299 907.346 510.175L911.57 509.398V510.983H904.089V489.227Z" fill="black"/>
<path d="M795.575 560.267V529.187H800.628C803.245 529.187 805.281 529.853 806.735 531.185C808.189 532.517 808.916 534.367 808.916 536.735C808.916 538.481 808.492 539.976 807.644 541.219C806.795 542.433 805.608 543.262 804.081 543.706V543.972C806.165 544.298 807.789 545.186 808.952 546.636C810.14 548.057 810.734 549.862 810.734 552.053C810.734 554.628 809.922 556.641 808.298 558.091C806.674 559.541 804.396 560.267 801.464 560.267H795.575ZM800.664 530.252H798.046V543.572H800.628C804.457 543.572 806.371 541.352 806.371 536.912C806.371 532.472 804.469 530.252 800.664 530.252ZM801.464 544.638H798.046V559.201H801.464C805.899 559.201 808.116 556.774 808.116 551.919C808.116 547.065 805.899 544.638 801.464 544.638Z" fill="#3D9A32"/>
<path d="M816.193 544.727C816.193 542.448 816.521 540.331 817.175 538.378C817.854 536.394 818.787 534.678 819.974 533.227C821.186 531.747 822.591 530.608 824.191 529.808C825.815 528.98 827.56 528.565 829.426 528.565C831.292 528.565 833.025 528.98 834.624 529.808C836.248 530.608 837.654 531.747 838.841 533.227C840.053 534.678 840.986 536.394 841.64 538.378C842.319 540.331 842.658 542.448 842.658 544.727C842.658 547.006 842.319 549.137 841.64 551.12C840.986 553.074 840.053 554.791 838.841 556.271C837.654 557.721 836.248 558.861 834.624 559.689C833.025 560.489 831.292 560.888 829.426 560.888C827.56 560.888 825.815 560.489 824.191 559.689C822.591 558.861 821.186 557.721 819.974 556.271C818.787 554.791 817.854 553.074 817.175 551.12C816.521 549.137 816.193 547.006 816.193 544.727ZM818.956 544.727C818.956 547.746 819.392 550.395 820.265 552.674C821.137 554.924 822.361 556.685 823.937 557.958C825.512 559.201 827.342 559.823 829.426 559.823C831.51 559.823 833.34 559.201 834.915 557.958C836.49 556.685 837.714 554.909 838.587 552.63C839.459 550.351 839.895 547.716 839.895 544.727C839.895 541.737 839.459 539.118 838.587 536.868C837.714 534.589 836.49 532.813 834.915 531.54C833.34 530.267 831.51 529.631 829.426 529.631C827.342 529.631 825.512 530.267 823.937 531.54C822.386 532.783 821.162 534.544 820.265 536.824C819.392 539.073 818.956 541.708 818.956 544.727Z" fill="#3D9A32"/>
<path d="M849.736 560.267L850.645 528.565H851.081L869.367 555.56H869.585L868.785 529.187H871.257L870.348 560.888H869.912L851.626 533.893H851.408L852.208 560.267H849.736Z" fill="#3D9A32"/>
<path d="M879.809 529.187H882.281V547.924C882.281 551.505 882.996 554.302 884.426 556.315C885.88 558.298 887.916 559.29 890.534 559.29C892.182 559.29 893.611 558.905 894.823 558.135C896.059 557.336 897.004 556.241 897.659 554.85C898.337 553.459 898.652 551.86 898.604 550.055L897.986 529.187H900.458L899.84 550.055C899.743 553.607 898.871 556.3 897.223 558.135C895.599 559.971 893.272 560.888 890.243 560.888C886.971 560.888 884.414 559.734 882.572 557.425C880.73 555.087 879.809 551.89 879.809 547.835V529.187Z" fill="#3D9A32"/>
<path d="M906.96 559.29L907.178 556.626H907.396C908.341 557.632 909.407 558.417 910.595 558.979C911.783 559.541 912.958 559.823 914.121 559.823C915.769 559.823 917.102 559.275 918.12 558.18C919.138 557.055 919.647 555.56 919.647 553.695C919.647 552.659 919.453 551.697 919.065 550.809C918.702 549.921 918.084 549.019 917.211 548.101C916.363 547.184 915.188 546.192 913.685 545.126C912.643 544.386 911.649 543.617 910.704 542.818C909.759 541.989 908.983 541.042 908.377 539.976C907.772 538.881 907.469 537.578 907.469 536.069C907.469 533.819 908.135 532.014 909.468 530.652C910.801 529.261 912.558 528.565 914.739 528.565C915.709 528.565 916.751 528.699 917.866 528.965C918.98 529.202 919.841 529.512 920.447 529.897L920.265 532.384H920.047C918.665 530.549 916.896 529.631 914.739 529.631C913.188 529.631 911.94 530.119 910.995 531.096C910.05 532.043 909.577 533.331 909.577 534.959C909.577 536.172 909.832 537.223 910.34 538.111C910.874 538.97 911.552 539.754 912.376 540.464C913.2 541.145 914.085 541.811 915.03 542.462C916.121 543.232 917.175 544.046 918.193 544.904C919.235 545.763 920.083 546.799 920.737 548.012C921.416 549.196 921.755 550.691 921.755 552.497C921.755 554.154 921.44 555.619 920.81 556.892C920.18 558.135 919.283 559.112 918.12 559.823C916.981 560.533 915.648 560.888 914.121 560.888C913.152 560.888 912.013 560.74 910.704 560.444C909.395 560.148 908.147 559.763 906.96 559.29Z" fill="#3D9A32"/>
</svg>
